# AST/ASF file generated using VICON BodyLanguage
# -----------------------------------------------
:version 1.10
:name VICON
:units
  mass 1.0
  length 0.45
  angle deg
:documentation
   .ast/.asf automatically generated from VICON data using
   VICON BodyBuilder and BodyLanguage model FoxedUp or BRILLIANT.MOD
:root
   order TX TY TZ RX RY RZ
   axis XYZ
   position 0 0 0  
   orientation 0 0 0 
:bonedata
  begin
     id 1 
     name lhipjoint
     direction 0.567149 -0.783011 0.255413 
     length 2.28399 
     axis 0 0 0  XYZ
  end
  begin
     id 2 
     name lfemur
     direction 0.34202 -0.939693 0  
     length 7.34031  
     axis 0 0 20  XYZ
    dof rx ry rz
    limits (-160.0 20.0)
           (-70.0 70.0)
           (-60.0 70.0)
  end
  begin
     id 3 
     name ltibia
     direction 0.34202 -0.939693 0   
     length 6.9833   
     axis 0 0 20   XYZ
    dof rx
    limits (-10.0 170.0)
  end
  begin
     id 4 
     name lfoot
     direction 0.136498 -0.375025 0.91691   
     length 2.33665   
     axis -90 7.62852e-016 20   XYZ
    dof rx rz
    limits (-45.0 90.0)
           (-70.0 20.0)
  end
  begin
     id 5 
     name ltoes
     direction 1.5367e-011 -4.21617e-011 1   
     length 1.15039   
     axis -90 7.62852e-016 20   XYZ
    dof rx
    limits (-90.0 20.0)
  end
  begin
     id 6 
     name rhipjoint
     direction -0.602854 -0.758518 0.247423   
     length 2.35775  
     axis 0 0 0  XYZ 
  end
  begin
     id 7 
     name rfemur
     direction -0.34202 -0.939693 0   
     length 7.43932   
     axis 0 0 -20   XYZ
    dof rx ry rz
    limits (-160.0 20.0)
           (-70.0 70.0)
           (-70.0 60.0)
  end
  begin
     id 8 
     name rtibia
     direction -0.34202 -0.939693 0   
     length 7.11893   
     axis 0 0 -20   XYZ
    dof rx
    limits (-10.0 170.0)
 end
 begin
     id 9 
     name rfoot
     direction -0.131771 -0.362037 0.922803   
     length 2.53019  
     axis -90 -7.62852e-016 -20   XYZ
    dof rx rz
    limits (-45.0 90.0)
           (-20.0 70.0)
  end
  begin
     id 10 
     name rtoes
     direction -1.53733e-011 -4.21932e-011 1   
     length 1.24596   
     axis -90 -7.62852e-016 -20   XYZ
    dof rx
    limits (-90.0 20.0)
  end
  begin
     id 11 
     name lowerback
     direction 0.0235427 0.999023 -0.0374125   
     length 2.21768   
     axis 0 0 0   XYZ
    dof rx ry rz
    limits (-20.0 45.0)
           (-30.0 30.0)
           (-30.0 30.0)
  end
  begin
     id 12 
     name upperback
     direction 0.0302156 0.996818 -0.073759   
     length 2.20352   
     axis 0 0 0   XYZ
    dof rx ry rz
    limits (-20.0 45.0)
           (-30.0 30.0)
           (-30.0 30.0)
  end
  begin
     id 13 
     name thorax
     direction 0.0187169 0.998235 -0.0563532   
     length 2.22103   
     axis 0 0 0   XYZ
    dof rx ry rz
    limits (-20.0 45.0)
           (-30.0 30.0)
           (-30.0 30.0)
  end
  begin
     id 14 
     name lowerneck
     direction -0.119528 0.987423 0.103481   
     length 1.72948   
     axis 0 0 0   XYZ
    dof rx ry rz
    limits (-20.0 45.0)
           (-30.0 30.0)
           (-30.0 30.0)
  end
  begin
     id 15 
     name upperneck
     direction 0.248049 0.963095 -0.104496   
     length 1.74979   
     axis 0 0 0   XYZ
    dof rx ry rz
    limits (-20.0 45.0)
           (-30.0 30.0)
           (-30.0 30.0)
  end
  begin
     id 16
     name head
     direction 0.0903589 0.994284 -0.056876  
     length 1.78268  
     axis 0 0 0   XYZ
    dof rx ry rz
    limits (-20.0 45.0)
           (-30.0 30.0)
           (-30.0 30.0)
  end
  begin
     id 17 
     name lclavicle
     direction 0.946008 0.242039 -0.215608  
     length 3.80783  
     axis 0 0 0   XYZ
    dof ry rz
    limits (-20.0 10.0)
           (0.0 20.0)
  end
  begin
     id 18 
     name lhumerus
     direction 1 -4.48991e-011 -2.25695e-027   
     length 4.83125   
     axis 180 -30 -90   XYZ
    dof rx ry rz
    limits (-60.0 90.0)
           (-90.0 90.0)
           (-90.0 90.0)
  end
  begin
     id 19
     name lradius
     direction 0.999991 0.00366712 -0.00211721   
     length 3.00391   
     axis 180 -30 -90   XYZ
    dof rx
    limits (-10.0 170.0)
  end
  begin
     id 20
     name lwrist
     direction 0.999991 0.00393016 -0.00141978   
     length 1.50195   
     axis -1.00488e-014 90 90   XYZ
    dof ry
    limits (-180.0 0.0)
 end
  begin
     id 21 
     name lhand
     direction 1 -4.49123e-011 2.72098e-026   
     length 1.2717   
     axis -1.73687e-014 90 90   XYZ
    dof rx rz
    limits (-90.0 90.0)
           (-45.0 45.0)
  end
  begin
     id 22 
     name lfingers
     direction 1 -4.48678e-011 5.4479e-026   
     length 1.02528   
     axis -3.47372e-014 90 90   XYZ
    dof rx
    limits (0.0 90.0)
  end
  begin
     id 23
     name lthumb
     direction 0.707107 -6.34851e-011 0.707107   
     length 1.4721   
     axis -90 45 -1.62303e-014   XYZ
    dof rx rz
    limits (-45.0 45.0)
           (-45.0 45.0)
  end
  begin
     id 24 
     name rclavicle
     direction -0.981723 0.189447 -0.0181673   
     length 3.74989  
     axis 0 0 0   XYZ 
    dof ry rz
    limits (-10.0 20.0)
           (-20.0 0.0)
  end
  begin
     id 25 
     name rhumerus
     direction -1 -4.48985e-011 2.38206e-027  
     length 4.61118   
     axis 180 30 90   XYZ
    dof rx ry rz
    limits (-90.0 60.0)
           (-90.0 90.0)
           (-90.0 90.0)
  end
  begin
     id 26 
     name rradius
     direction -1 -4.48977e-011 7.41019e-027   
     length 2.91491   
     axis 180 30 90   XYZ
    dof rx
    limits (-10.0 170.0)
  end
  begin
     id 27 
     name rwrist
     direction -1 -4.48549e-011 1.3624e-026   
     length 1.45745   
     axis -1.00488e-014 -90 -90   XYZ
    dof ry
    limits (-180.0 0.0)
  end
  begin
     id 28
     name rhand
     direction -1 -4.49107e-011 2.72109e-026   
     length 1.30769   
     axis -1.73687e-014 -90 -90   XYZ
    dof rx rz
    limits (-90.0 90.0)
           (-45.0 45.0)
  end
  begin
     id 29
     name rfingers
     direction -1 -4.48919e-011 5.44468e-026   
     length 1.05429   
     axis -3.47372e-014 -90 -90   XYZ
    dof rx
    limits (0.0 90.0)
  end
  begin
     id 30
     name rthumb
     direction -0.707107 -6.35315e-011 0.707107   
     length 1.51376   
     axis -90 -45 1.62303e-014   XYZ
    dof rx rz
    limits (-45.0 45.0)
           (-45.0 45.0)
  end
:hierarchy
  begin
    root lhipjoint rhipjoint lowerback
    lhipjoint lfemur
    lfemur ltibia
    ltibia lfoot
    lfoot ltoes
    rhipjoint rfemur
    rfemur rtibia
    rtibia rfoot
    rfoot rtoes
    lowerback upperback
    upperback thorax
    thorax lowerneck lclavicle rclavicle
    lowerneck upperneck
    upperneck head
    lclavicle lhumerus
    lhumerus lradius
    lradius lwrist
    lwrist lhand lthumb
    lhand lfingers
    rclavicle rhumerus
    rhumerus rradius
    rradius rwrist
    rwrist rhand rthumb
    rhand rfingers
  end

#!OML:ASF X:\für Bonn\!DataBase\2005_08_11_Bastian_Final\c3d\Bastian.ASF
:FULLY-SPECIFIED
:DEGREES
16
root -11.5507 17.4473 -0.305283 98.5147 -80.1652 -111.327
lowerback 9.8419 -1.26696 8.04873
upperback 5.4773 -1.41983 6.07574
thorax 0.215877 -0.822179 1.95163
lowerneck -8.89489 -2.64164 -4.53164
upperneck -8.9192 -3.35723 3.07846
head -1.17648 -1.70677 1.67552
rclavicle -2.38542e-015 -1.98785e-014
rhumerus -29.3426 9.86483 -77.7817
rradius 64.9549
rwrist 1.87476
rhand -12.8512 6.14502
rfingers 7.12502
rthumb 13.2366 -23.4147
lclavicle -2.38542e-015 -1.98785e-014
lhumerus -35.5133 -2.34306 93.4172
lradius 6.60562
lwrist -4.69248
lhand -4.62542 -5.5937
lfingers 7.12502
lthumb 21.1533 23.2723
rfemur 0.484044 -3.34765 33.2707
rtibia 28.4566
rfoot -8.4491 -4.82455
rtoes 4.49182
lfemur -10.5313 6.57112 -5.09812
ltibia 66.6248
lfoot 1.22926 -14.0529
ltoes -20.7173
17
root -11.6845 17.4417 -0.30831 101.169 -79.9342 -113.91
lowerback 9.8131 -1.11142 8.1526
upperback 5.47182 -1.20814 6.0662
thorax 0.229918 -0.713764 1.86276
lowerneck -8.7594 -2.62939 -4.55853
upperneck -8.96186 -3.34171 3.10363
head -1.21213 -1.69824 1.69167
rclavicle -4.82053e-015 -2.22639e-014
rhumerus -28.2825 10.3356 -77.5821
rradius 65.5407
rwrist 1.83133
rhand -12.902 6.27804
rfingers 7.12502
rthumb 13.1876 -23.2849
lclavicle -4.82053e-015 -2.22639e-014
lhumerus -36.4112 -2.62125 93.5661
lradius 7.24628
lwrist -3.59867
lhand -4.68988 -5.75854
lfingers 7.12502
lthumb 21.0914 23.1144
rfemur 0.933353 -3.35543 33.3101
rtibia 28.5037
rfoot -8.9536 -4.40337
rtoes 4.40987
lfemur -11.5039 6.79351 -5.07359
ltibia 65.4789
lfoot 0.375618 -14.1711
ltoes -20.2485
18
root -11.8197 17.4349 -0.311241 103.759 -79.6954 -116.421
lowerback 9.74583 -0.950577 8.2352
upperback 5.47288 -0.996373 6.0526
thorax 0.272799 -0.604625 1.78071
lowerneck -8.65339 -2.60914 -4.57363
upperneck -8.97261 -3.31532 3.11755
head -1.23355 -1.6843 1.70135
rclavicle 2.38542e-015 -6.91771e-014
rhumerus -27.1736 10.8605 -77.3485
rradius 66.1203
rwrist 1.71787
rhand -13.001 6.35952
rfingers 7.12502
rthumb 13.0922 -23.2095
lclavicle 2.38542e-015 -6.91771e-014
lhumerus -37.2891 -2.87671 93.7526
lradius 7.95878
lwrist -2.3794
lhand -4.72652 -5.8632
lfingers 7.12502
lthumb 21.0562 23.0136
rfemur 1.37581 -3.36509 33.3213
rtibia 28.5631
rfoot -9.47094 -3.96964
rtoes 4.34457
lfemur -12.3625 6.98127 -5.06786
ltibia 64.1171
lfoot -0.44026 -14.1967
ltoes -19.6879
19
root -11.9551 17.4275 -0.315049 106.143 -79.449 -118.698
lowerback 9.64853 -0.791683 8.31232
upperback 5.46927 -0.789729 6.02573
thorax 0.327552 -0.497015 1.68824
lowerneck -8.54731 -2.59648 -4.56698
upperneck -9.00126 -3.30047 3.14666
head -1.26033 -1.67712 1.71218
rclavicle -1.73937e-015 3.33958e-014
rhumerus -25.9939 11.4382 -77.1096
rradius 66.7087
rwrist 1.51913
rhand -13.075 6.36665
rfingers 7.12502
rthumb 13.0209 -23.207
lclavicle -1.73937e-015 3.33958e-014
lhumerus -38.1456 -3.13781 93.9419
lradius 8.68604
lwrist -1.09411
lhand -4.85675 -5.98685
lfingers 7.12502
lthumb 20.931 22.9039
rfemur 1.78356 -3.42041 33.3153
rtibia 28.6153
rfoot -9.96517 -3.48801
rtoes 4.21469
lfemur -13.1328 7.12377 -5.05873
ltibia 62.5164
lfoot -1.19337 -14.2116
ltoes -19.0308
20
root -12.0906 17.4194 -0.31922 108.414 -79.1874 -120.858
lowerback 9.52044 -0.631677 8.36105
upperback 5.48924 -0.592222 6.01861
thorax 0.424965 -0.394206 1.63319
lowerneck -8.48558 -2.58695 -4.60277
upperneck -9.03827 -3.28603 3.18245
head -1.28189 -1.66933 1.73202
rclavicle -1.78906e-015 -3.97569e-015
rhumerus -24.7048 11.9432 -76.8038
rradius 67.1987
rwrist 1.38094
rhand -13.089 6.46968
rfingers 7.12502
rthumb 13.0074 -23.1048
lclavicle -1.78906e-015 -3.97569e-015
lhumerus -38.9295 -3.36619 94.157
lradius 9.45429
lwrist 0.296368
lhand -4.99138 -6.04931
lfingers 7.12502
lthumb 20.8017 22.8556
rfemur 2.19646 -3.44723 33.3085
rtibia 28.6537
rfoot -10.4777 -3.05195
rtoes 4.18559
lfemur -13.7643 7.21765 -5.0402
ltibia 60.6773
lfoot -1.88979 -14.1266
ltoes -18.9469
21
root -12.2259 17.4118 -0.323972 110.585 -78.9046 -122.905
lowerback 9.39029 -0.4643 8.39737
upperback 5.49576 -0.383816 6.01084
thorax 0.509977 -0.286222 1.58429
lowerneck -8.40946 -2.57999 -4.58773
upperneck -9.08319 -3.28085 3.18367
head -1.30924 -1.66742 1.73191
rclavicle -2.38542e-015 -5.1684e-014
rhumerus -23.3744 12.2581 -76.5025
rradius 67.6175
rwrist 1.30408
rhand -13.028 6.6632
rfingers 7.12502
rthumb 13.0662 -22.9075
lclavicle -2.38542e-015 -5.1684e-014
lhumerus -39.7007 -3.61525 94.3593
lradius 10.2252
lwrist 1.71551
lhand -5.12999 -6.09682
lfingers 7.12502
lthumb 20.6685 22.8227
rfemur 2.62299 -3.40792 33.316
rtibia 28.6367
rfoot -10.9477 -2.645
rtoes 4.29148
lfemur -14.2874 7.24513 -5.01106
ltibia 58.6369
lfoot -2.37725 -13.8998
ltoes -19.0352
22
root -12.3612 17.4072 -0.327708 112.547 -78.6031 -124.746
lowerback 9.28373 -0.306784 8.46187
upperback 5.49148 -0.181825 5.99481
thorax 0.571136 -0.181266 1.51301
lowerneck -8.35848 -2.57047 -4.57912
upperneck -9.1016 -3.26853 3.21988
head -1.32356 -1.66184 1.74358
rclavicle -1.09332e-015 3.18055e-015
rhumerus -22.0385 12.5777 -76.2107
rradius 68.0126
rwrist 1.21514
rhand -12.9655 6.83209
rfingers 7.12502
rthumb 13.1264 -22.7348
lclavicle -1.09332e-015 3.18055e-015
lhumerus -40.4168 -3.51112 94.2548
lradius 10.9952
lwrist 2.78733
lhand -5.1953 -6.1271
lfingers 7.12502
lthumb 20.6058 22.7992
rfemur 3.08119 -3.46611 33.3041
rtibia 28.5401
rfoot -11.3718 -2.17756
rtoes 4.16495
lfemur -14.7177 7.20908 -4.95839
ltibia 56.4366
lfoot -2.61697 -13.5525
ltoes -19.5477
23
root -12.497 17.4077 -0.330496 114.477 -78.3075 -126.529
lowerback 9.14817 -0.147216 8.51219
upperback 5.47861 0.0201665 5.97152
thorax 0.63953 -0.0757846 1.44251
lowerneck -8.31189 -2.56436 -4.57066
upperneck -9.1073 -3.26015 3.25722
head -1.33289 -1.65809 1.75529
rclavicle -7.40473e-015 7.95139e-016
rhumerus -20.6864 12.8856 -75.8914
rradius 68.3876
rwrist 1.11276
rhand -12.85 6.98808
rfingers 7.12502
rthumb 13.2378 -22.5716
lclavicle -7.40473e-015 7.95139e-016
lhumerus -41.1012 -3.41687 94.128
lradius 11.7581
lwrist 3.76785
lhand -5.19875 -6.12068
lfingers 7.12502
lthumb 20.6024 22.806
rfemur 3.56351 -3.49559 33.264
rtibia 28.3413
rfoot -11.7547 -1.71989
rtoes 4.14004
lfemur -15.1098 7.07222 -4.926
ltibia 54.1136
lfoot -2.6526 -13.0515
ltoes -19.8761
